<svg xmlns="http://www.w3.org/2000/svg" viewBox="0 0 131 131"><defs><style>.cls-1{fill:#1b4332;}</style></defs><title>Fichier 3</title><g id="Calque_2" data-name="Calque 2"><g id="Calque_1-2" data-name="Calque 1"><polygon class="cls-1" points="90 40.5 71.25 71.75 40 90.5 40 90.5 58.75 59.25 90 40.5 90 40.5"/><path class="cls-1" d="M125.92,39.83A65.12,65.12,0,0,0,112.09,19,64.08,64.08,0,0,0,91.24,5.08,65.81,65.81,0,0,0,65.5,0,65.9,65.9,0,0,0,39.75,5.08,64.14,64.14,0,0,0,18.91,19,66.09,66.09,0,0,0,0,65.5,66.09,66.09,0,0,0,18.91,112a64.14,64.14,0,0,0,20.84,13.88A65.9,65.9,0,0,0,65.5,131a65.81,65.81,0,0,0,25.74-5.08A64.08,64.08,0,0,0,112.09,112,66.09,66.09,0,0,0,131,65.5,65.4,65.4,0,0,0,125.92,39.83ZM65.5,104c-20.67,0-37.43-17-37.43-38S44.83,28,65.5,28s37.43,17,37.43,38S86.17,104,65.5,104Z"/></g></g></svg>