<svg xmlns="http://www.w3.org/2000/svg" viewBox="0 0 751.5 378.51"><defs><style>.cls-1{fill:#fff;}</style></defs><title>Fichier 1_1</title><g id="Calque_2" data-name="Calque 2"><g id="Calque_3" data-name="Calque 3"><path class="cls-1" d="M0,0H29.26l74.48,77.14V0H133V133H105.55L29.26,52.82V133H0Z"/><path class="cls-1" d="M164,133V0H453V28.31H195V52.25H422V79.61H195v25.08H453V133Z"/><path class="cls-1" d="M49.07,326,0,195H32.25l34.51,97.5L102,195h31L83.23,326Z"/><path class="cls-1" d="M164,325.72V195h31V325.72Z"/><path class="cls-1" d="M226.5,304.71,246.69,282q13.25,9.28,24.81,13.46a70.28,70.28,0,0,0,24.18,4.19q12.4,0,19.45-3.28t7-9.09a9.11,9.11,0,0,0-4.73-8.19q-4.72-2.91-15.66-4.55L269.4,269.6q-17.88-2.73-27.55-11.83t-9.67-23.11q0-18.37,16.08-29T292.53,195a117.14,117.14,0,0,1,33.11,4.91,98.4,98.4,0,0,1,28.71,13.28L335.21,236.3a92.45,92.45,0,0,0-22.6-11.46A71.68,71.68,0,0,0,290,221.2q-10.94,0-17.35,3t-6.41,8.1a8.32,8.32,0,0,0,4.1,7.37c2.74,1.76,7.18,3.06,13.35,3.91L314.18,248q21.24,2.91,32.28,12.19t11,24q0,19.29-17.35,30.57T293,326a114.52,114.52,0,0,1-35.22-5.64A108.65,108.65,0,0,1,226.5,304.71Z"/><path class="cls-1" d="M391,326V195h31V326Z"/><path class="cls-1" d="M620.5,195h28.82l73.36,76V195H751.5V326h-27l-75.14-79v79H620.5Z"/><polygon class="cls-1" points="715.73 0 675.74 98.99 636.53 0 635.11 0 599.89 0 599.85 0 559.85 98.99 520.64 0 484 0 539.75 133 578.57 133 617.38 41.71 655.64 133 694.46 133 751 0 715.73 0"/><polygon class="cls-1" points="543.5 235.5 524.75 266.75 493.5 285.5 493.5 285.5 512.25 254.25 543.5 235.5 543.5 235.5"/><path class="cls-1" d="M579.42,234.83A65.12,65.12,0,0,0,565.59,214a64.08,64.08,0,0,0-20.85-13.88,67.78,67.78,0,0,0-51.49,0A64.14,64.14,0,0,0,472.41,214a66.55,66.55,0,0,0,0,93.08,64.14,64.14,0,0,0,20.84,13.88,67.78,67.78,0,0,0,51.49,0A64.08,64.08,0,0,0,565.59,307a66.95,66.95,0,0,0,13.83-72.21ZM519,299c-20.67,0-37.43-17-37.43-38s16.76-38,37.43-38,37.43,17,37.43,38S539.67,299,519,299Z"/><path class="cls-1" d="M2.31,378.18V357.5h9.12a7.18,7.18,0,0,1,4.92,1.64,6,6,0,0,1,0,8.67,7.1,7.1,0,0,1-4.9,1.66H4.62v8.71Zm8.94-18.64H4.62v7.95h6.63a5,5,0,0,0,3.39-1.08,4,4,0,0,0,0-5.81A5.08,5.08,0,0,0,11.25,359.54Z"/><path class="cls-1" d="M21.72,378.18V357.5H24v9.25H36.24V357.5h2.31v20.68H36.24v-9.39H24v9.39Z"/><path class="cls-1" d="M63.81,367.84a10.62,10.62,0,0,1-3.14,7.58,10.78,10.78,0,0,1-3.43,2.26,10.89,10.89,0,0,1-4.23.83,11,11,0,0,1-4.25-.83,10.76,10.76,0,0,1-3.45-2.26,10.72,10.72,0,0,1,0-15.16,11,11,0,0,1,15.36,0,10.62,10.62,0,0,1,3.14,7.58Zm-2.34,0a8.67,8.67,0,0,0-.66-3.38A8.52,8.52,0,0,0,59,361.74a8.21,8.21,0,0,0-2.68-1.8,8.68,8.68,0,0,0-6.69,0,8.25,8.25,0,0,0-2.69,1.8,8.5,8.5,0,0,0-1.78,2.72A8.8,8.8,0,0,0,47,373.93a8.12,8.12,0,0,0,2.69,1.81,8.68,8.68,0,0,0,6.69,0A8.08,8.08,0,0,0,59,373.93a8.75,8.75,0,0,0,1.79-2.72A8.58,8.58,0,0,0,61.47,367.84Z"/><path class="cls-1" d="M64.08,359.54v-2H81.57v2H74v18.64H71.67V359.54Z"/><path class="cls-1" d="M103.47,367.84a10.62,10.62,0,0,1-3.14,7.58,10.78,10.78,0,0,1-3.43,2.26,10.89,10.89,0,0,1-4.23.83,11,11,0,0,1-4.25-.83A10.76,10.76,0,0,1,85,375.42a10.72,10.72,0,0,1,0-15.16,11,11,0,0,1,15.36,0,10.62,10.62,0,0,1,3.14,7.58Zm-2.34,0a8.67,8.67,0,0,0-.66-3.38,8.52,8.52,0,0,0-1.79-2.72,8.21,8.21,0,0,0-2.68-1.8,8.68,8.68,0,0,0-6.69,0,8.25,8.25,0,0,0-2.69,1.8,8.5,8.5,0,0,0-1.78,2.72,8.8,8.8,0,0,0,1.78,9.47,8.12,8.12,0,0,0,2.69,1.81,8.68,8.68,0,0,0,6.69,0,8.08,8.08,0,0,0,2.68-1.81,8.75,8.75,0,0,0,1.79-2.72A8.58,8.58,0,0,0,101.13,367.84Z"/><path class="cls-1" d="M127.29,368.28a10.42,10.42,0,0,1-.78,4,9.65,9.65,0,0,1-2.16,3.23,10.33,10.33,0,0,1-3.24,2.16,10.12,10.12,0,0,1-4,.8,10.79,10.79,0,0,1-10-6.5,10.27,10.27,0,0,1-.85-4.17,10.38,10.38,0,0,1,.84-4.16,10.62,10.62,0,0,1,2.29-3.39,11,11,0,0,1,7.7-3.11,11.81,11.81,0,0,1,4.59.9,10.83,10.83,0,0,1,3.69,2.49l-1.56,1.57a8,8,0,0,0-3-2.11,9.59,9.59,0,0,0-3.72-.76,8.54,8.54,0,0,0-3.36.67,8.25,8.25,0,0,0-2.69,1.8,8.5,8.5,0,0,0-1.78,2.72,9,9,0,0,0,0,6.76,8.39,8.39,0,0,0,1.78,2.72,8.25,8.25,0,0,0,2.69,1.8,8.7,8.7,0,0,0,6.34.14,7.82,7.82,0,0,0,2.43-1.47,7.54,7.54,0,0,0,1.7-2.23,7.4,7.4,0,0,0,.78-2.8h-7.53v-2h9.87Z"/><path class="cls-1" d="M130.86,378.18V357.5h9a7.3,7.3,0,0,1,4.95,1.64,5.77,5.77,0,0,1,.67,7.82,6.2,6.2,0,0,1-3.25,2l4.71,9.19h-2.55l-4.5-8.89h-6.72v8.89Zm8.85-18.64h-6.54v7.83h6.54a5.11,5.11,0,0,0,3.39-1.08,3.78,3.78,0,0,0,0-5.69A5.15,5.15,0,0,0,139.71,359.54Z"/><path class="cls-1" d="M148.32,378.18l8.73-20.68h2.79l8.61,20.68h-2.52l-2.64-6.5h-9.9l-2.67,6.5Zm5.88-8.45h8.28l-4.11-10.1Z"/><path class="cls-1" d="M170.88,378.18V357.5H180a7.18,7.18,0,0,1,4.92,1.64,6,6,0,0,1,0,8.67,7.1,7.1,0,0,1-4.9,1.66h-6.81v8.71Zm8.94-18.64h-6.63v7.95h6.63a5,5,0,0,0,3.39-1.08,4,4,0,0,0,0-5.81A5.08,5.08,0,0,0,179.82,359.54Z"/><path class="cls-1" d="M190.29,378.18V357.5h2.31v9.25h12.21V357.5h2.31v20.68h-2.31v-9.39H192.6v9.39Z"/><path class="cls-1" d="M211.74,378.18V357.5h2.31v20.68Z"/><path class="cls-1" d="M218.67,378.18V357.5h15v2H221v7.24h8.31v2H221v7.44h12.84v2Z"/><path class="cls-1" d="M256.73,378.18l-8.61-20.68h2.49l7.59,18.55,7.71-18.55h2.34l-8.73,20.68Z"/><path class="cls-1" d="M270.68,378.18V357.5H273v20.68Z"/><path class="cls-1" d="M277.61,378.18V357.5h6.93a12,12,0,0,1,4.41.79,10.71,10.71,0,0,1,3.51,2.14,9.5,9.5,0,0,1,2.3,3.26,10.91,10.91,0,0,1,0,8.3,9.73,9.73,0,0,1-2.28,3.27,10.72,10.72,0,0,1-3.5,2.14,12.33,12.33,0,0,1-4.44.78Zm7.05-18.61h-4.74v16.54h4.74a9.12,9.12,0,0,0,3.39-.63,8.36,8.36,0,0,0,2.73-1.75,8.05,8.05,0,0,0,1.8-2.62,8.17,8.17,0,0,0,.66-3.27,8.19,8.19,0,0,0-2.46-5.89,8.18,8.18,0,0,0-2.73-1.74A8.93,8.93,0,0,0,284.66,359.57Z"/><path class="cls-1" d="M299.21,378.18V357.5h15v2H301.52v7.24h8.31v2h-8.31v7.44h12.84v2Z"/><path class="cls-1" d="M337,367.84a10.67,10.67,0,0,1-3.13,7.58,10.94,10.94,0,0,1-7.67,3.09,11,11,0,0,1-4.24-.83,10.76,10.76,0,0,1-3.45-2.26,10.69,10.69,0,0,1,0-15.16,11,11,0,0,1,15.36,0,10.67,10.67,0,0,1,3.13,7.58Zm-2.34,0a8.67,8.67,0,0,0-.66-3.38,8.5,8.5,0,0,0-1.78-2.72,8.25,8.25,0,0,0-2.69-1.8,8.68,8.68,0,0,0-6.69,0,8.21,8.21,0,0,0-2.68,1.8,8.52,8.52,0,0,0-1.79,2.72,8.77,8.77,0,0,0,1.79,9.47,8.08,8.08,0,0,0,2.68,1.81,8.68,8.68,0,0,0,6.69,0,8.12,8.12,0,0,0,2.69-1.81,8.72,8.72,0,0,0,1.78-2.72A8.58,8.58,0,0,0,334.67,367.84Z"/><path class="cls-1" d="M363.77,376.41a9.44,9.44,0,0,0,3.72-.75,8.4,8.4,0,0,0,3-2.09l1.5,1.54a11.16,11.16,0,0,1-3.72,2.49,11.49,11.49,0,0,1-4.53.91,11.1,11.1,0,0,1-4.28-.83,10.91,10.91,0,0,1-3.46-2.26,10.66,10.66,0,0,1,0-15.16,11,11,0,0,1,7.74-3.08,11.9,11.9,0,0,1,4.6.9,10.82,10.82,0,0,1,3.71,2.49l-1.53,1.6a8.47,8.47,0,0,0-3.05-2.13,9.51,9.51,0,0,0-3.73-.77,8.67,8.67,0,0,0-3.38.67,8.2,8.2,0,0,0-4.51,4.52,9,9,0,0,0,0,6.76,8.15,8.15,0,0,0,1.81,2.72,8.73,8.73,0,0,0,6.14,2.47Z"/><path class="cls-1" d="M395.51,367.84a10.62,10.62,0,0,1-3.14,7.58,10.78,10.78,0,0,1-3.43,2.26,10.89,10.89,0,0,1-4.23.83,11,11,0,0,1-4.25-.83,10.76,10.76,0,0,1-3.45-2.26,10.72,10.72,0,0,1,0-15.16,11,11,0,0,1,15.36,0,10.62,10.62,0,0,1,3.14,7.58Zm-2.34,0a8.67,8.67,0,0,0-.66-3.38,8.52,8.52,0,0,0-1.79-2.72,8.21,8.21,0,0,0-2.68-1.8,8.68,8.68,0,0,0-6.69,0,8.25,8.25,0,0,0-2.69,1.8,8.5,8.5,0,0,0-1.78,2.72,8.8,8.8,0,0,0,1.78,9.47,8.12,8.12,0,0,0,2.69,1.81,8.68,8.68,0,0,0,6.69,0,8.08,8.08,0,0,0,2.68-1.81,8.75,8.75,0,0,0,1.79-2.72A8.58,8.58,0,0,0,393.17,367.84Z"/><path class="cls-1" d="M409.52,376.7l-8.22-16.57v18.05h-2.16V357.5h3.24l7.17,14.68,7.14-14.68h3.24v20.68h-2.19V360.1Z"/><path class="cls-1" d="M434.93,376.7l-8.22-16.57v18.05h-2.16V357.5h3.24L435,372.18l7.14-14.68h3.24v20.68h-2.19V360.1Z"/><path class="cls-1" d="M466.88,369.44a9.18,9.18,0,0,1-2.36,6.6,9.33,9.33,0,0,1-12.64,0,9.17,9.17,0,0,1-2.34-6.61V357.5h2.31v11.94a7.22,7.22,0,0,0,1.74,5.06,6.54,6.54,0,0,0,9.24,0,7.22,7.22,0,0,0,1.74-5.06V357.5h2.31Z"/><path class="cls-1" d="M471.08,357.5h2.31L486,374.28V357.5h2.19v20.68h-2L473.27,361v17.22h-2.19Z"/><path class="cls-1" d="M492.83,378.18V357.5h2.31v20.68Z"/><path class="cls-1" d="M509.72,376.41a9.44,9.44,0,0,0,3.72-.75,8.4,8.4,0,0,0,3-2.09l1.5,1.54a11.16,11.16,0,0,1-3.72,2.49,11.49,11.49,0,0,1-4.53.91,11.1,11.1,0,0,1-4.28-.83,10.91,10.91,0,0,1-3.46-2.26,10.66,10.66,0,0,1,0-15.16,11,11,0,0,1,7.74-3.08,11.9,11.9,0,0,1,4.6.9,10.82,10.82,0,0,1,3.71,2.49l-1.53,1.6a8.47,8.47,0,0,0-3.05-2.13,9.51,9.51,0,0,0-3.73-.77,8.67,8.67,0,0,0-3.38.67,8.2,8.2,0,0,0-4.51,4.52,9,9,0,0,0,0,6.76,8.15,8.15,0,0,0,1.81,2.72,8.73,8.73,0,0,0,6.14,2.47Z"/><path class="cls-1" d="M519.23,378.18,528,357.5h2.79l8.61,20.68h-2.52l-2.64-6.5h-9.9l-2.67,6.5Zm5.88-8.45h8.28l-4.11-10.1Z"/><path class="cls-1" d="M536.14,359.54v-2h17.49v2H546v18.64h-2.31V359.54Z"/><path class="cls-1" d="M556.45,378.18V357.5h2.31v20.68Z"/><path class="cls-1" d="M584,367.84a10.67,10.67,0,0,1-3.13,7.58,10.94,10.94,0,0,1-7.67,3.09,11,11,0,0,1-4.24-.83,10.76,10.76,0,0,1-3.45-2.26,10.69,10.69,0,0,1,0-15.16,11,11,0,0,1,15.36,0,10.67,10.67,0,0,1,3.13,7.58Zm-2.34,0a8.67,8.67,0,0,0-.66-3.38,8.5,8.5,0,0,0-1.78-2.72,8.25,8.25,0,0,0-2.69-1.8,8.68,8.68,0,0,0-6.69,0,8.21,8.21,0,0,0-2.68,1.8,8.52,8.52,0,0,0-1.79,2.72,8.77,8.77,0,0,0,1.79,9.47,8.08,8.08,0,0,0,2.68,1.81,8.68,8.68,0,0,0,6.69,0,8.12,8.12,0,0,0,2.69-1.81,8.72,8.72,0,0,0,1.78-2.72A8.58,8.58,0,0,0,581.68,367.84Z"/><path class="cls-1" d="M587.65,357.5H590l12.63,16.78V357.5h2.19v20.68h-2L589.84,361v17.22h-2.19Z"/><path class="cls-1" d="M622.57,378.18V357.5h6.93a12,12,0,0,1,4.41.79,10.71,10.71,0,0,1,3.51,2.14,9.5,9.5,0,0,1,2.3,3.26,10.91,10.91,0,0,1,0,8.3,9.73,9.73,0,0,1-2.28,3.27,10.72,10.72,0,0,1-3.5,2.14,12.33,12.33,0,0,1-4.44.78Zm7-18.61h-4.74v16.54h4.74a9.12,9.12,0,0,0,3.39-.63,8.36,8.36,0,0,0,2.73-1.75,8.05,8.05,0,0,0,1.8-2.62,8.17,8.17,0,0,0,.66-3.27,8.19,8.19,0,0,0-2.46-5.89,8.18,8.18,0,0,0-2.73-1.74A8.93,8.93,0,0,0,629.62,359.57Z"/><path class="cls-1" d="M644.17,378.18V357.5h2.31v20.68Z"/><path class="cls-1" d="M671.17,368.28a10.42,10.42,0,0,1-.78,4,9.65,9.65,0,0,1-2.16,3.23,10.33,10.33,0,0,1-3.24,2.16,10.12,10.12,0,0,1-4,.8,10.83,10.83,0,0,1-10-6.5,10.62,10.62,0,0,1,2.29-11.72,11,11,0,0,1,7.69-3.11,11.81,11.81,0,0,1,4.59.9,10.83,10.83,0,0,1,3.69,2.49l-1.56,1.57a8,8,0,0,0-3-2.11,9.59,9.59,0,0,0-3.72-.76,8.54,8.54,0,0,0-3.36.67,8.21,8.21,0,0,0-2.68,1.8,8.52,8.52,0,0,0-1.79,2.72,9,9,0,0,0,0,6.76,8.41,8.41,0,0,0,1.79,2.72,8.21,8.21,0,0,0,2.68,1.8,8.7,8.7,0,0,0,6.34.14,7.47,7.47,0,0,0,4.13-3.7,7.4,7.4,0,0,0,.78-2.8H661.3v-2h9.87Z"/><path class="cls-1" d="M674.74,378.18V357.5h2.31v20.68Z"/><path class="cls-1" d="M679.87,359.54v-2h17.49v2h-7.59v18.64h-2.31V359.54Z"/><path class="cls-1" d="M694.15,378.18l8.73-20.68h2.79l8.61,20.68h-2.52l-2.64-6.5h-9.9l-2.67,6.5Zm5.88-8.45h8.28l-4.11-10.1Z"/><path class="cls-1" d="M716.71,378.18V357.5H719v18.64h12.51v2Z"/><path class="cls-1" d="M734.83,378.18V357.5h15v2H737.14v7.24h8.31v2h-8.31v7.44H750v2Z"/></g></g></svg>